<svg version="1.2" xmlns="http://www.w3.org/2000/svg" viewBox="0 0 256 256" width="256" height="256">
	<title>404-svg</title>
	<style>
		.s0 { fill: #ffffff } 
		.s1 { fill: #d23030 } 
	</style>
	<path id="Layer" fill-rule="evenodd" class="s0" d="m198.7 222.4l-159.4 0.1c-8 0-15.2-4.2-19.2-11.1-2-3.5-3-7.3-3-11.1 0-3.8 1-7.6 3-11.1l79.7-145c4-6.9 11.1-11.1 19.2-11.1 8 0 15.1 4.1 19.1 11.1l79.8 145c2 3.5 3 7.3 3 11.1 0 3.8-1 7.6-3 11-4 7-11.1 11.1-19.2 11.1q0 0 0 0zm-179.6-22.1c0 3.5 17.6-4 19.4-0.8 3.7 6.3-6.5 21 0.8 21 0 0 173.3-3.9 176.9-10.2 1.8-3.1 2.7-6.6 2.7-10 0-3.5-0.9-7-2.7-10.1l-79.8-145c-3.6-6.3-10.2-10.1-17.4-10.1-7.3 0-99.9 161.8-99.9 165.2z"/>
	<path id="Layer" class="s1" d="m165.5 189.4c-40.4 0-73-32.6-73-73 0-40.3 32.6-73 73-73 40.3 0 73 32.7 73 73 0 40.4-32.7 73-73 73z"/>
	<path id="Layer" class="s0" d="m165.5 162.2c-3.7 0-6.7-3-6.7-6.7 0-3.7 3-6.7 6.7-6.7 3.7 0 6.7 3 6.7 6.7 0 3.7-3 6.7-6.7 6.7z"/>
	<path id="Layer" class="s0" d="m165.5 72.7c-0.7 4.1 0.5 4.9 0.5 22.6 0 17.6 3.6 41.3-0.5 41.3-4.2 0-5.7-48.8-20-53.2-16.9-5 22-24 20-10.7z"/>
</svg>