<?xml version="1.0" standalone="no"?>
<!DOCTYPE svg PUBLIC "-//W3C//DTD SVG 20010904//EN"
 "http://www.w3.org/TR/2001/REC-SVG-20010904/DTD/svg10.dtd">
<svg version="1.0" xmlns="http://www.w3.org/2000/svg"
 width="260.000000pt" height="260.000000pt" viewBox="0 0 260.000000 260.000000"
 preserveAspectRatio="xMidYMid meet">
<metadata>
Created by potrace 1.14, written by Peter Selinger 2001-2017
</metadata>
<g transform="translate(0.000000,260.000000) scale(0.100000,-0.100000)"
fill="#000000" stroke="none">
<path d="M1218 2525 c-2 -2 -24 -6 -49 -9 -111 -15 -245 -73 -336 -145 -176
-138 -314 -359 -372 -593 -47 -190 -49 -232 -50 -990 -1 -395 1 -718 4 -718 7
0 64 26 220 100 61 29 129 61 153 71 l42 18 1 583 c1 568 2 639 13 743 29 277
135 469 303 547 129 61 289 37 398 -59 111 -98 190 -282 212 -495 15 -146 7
-529 -12 -580 -3 -7 -7 -26 -9 -43 -33 -231 -176 -449 -352 -535 l-72 -35 80
-158 c90 -176 76 -167 173 -120 266 127 455 372 561 728 14 44 27 96 30 115 6
41 12 75 20 110 3 14 8 117 10 230 4 228 -7 330 -51 498 -86 333 -332 622
-595 702 -36 11 -78 22 -95 26 -31 6 -222 14 -227 9z"/>
</g>
</svg>
